<?xml version="1.0" encoding="utf-8" standalone="no"?>
<!DOCTYPE svg PUBLIC "-//W3C//DTD SVG 1.1//EN"
  "http://www.w3.org/Graphics/SVG/1.1/DTD/svg11.dtd">
<svg xmlns:xlink="http://www.w3.org/1999/xlink" width="942.4pt" height="697.6pt" viewBox="0 0 942.4 697.6" xmlns="http://www.w3.org/2000/svg" version="1.1">
 <metadata>
  <rdf:RDF xmlns:dc="http://purl.org/dc/elements/1.1/" xmlns:cc="http://creativecommons.org/ns#" xmlns:rdf="http://www.w3.org/1999/02/22-rdf-syntax-ns#">
   <cc:Work>
    <dc:type rdf:resource="http://purl.org/dc/dcmitype/StillImage"/>
    <dc:date>2026-06-17T07:09:01.468787</dc:date>
    <dc:format>image/svg+xml</dc:format>
    <dc:creator>
     <cc:Agent>
      <dc:title>Matplotlib v3.10.8, https://matplotlib.org/</dc:title>
     </cc:Agent>
    </dc:creator>
   </cc:Work>
  </rdf:RDF>
 </metadata>
 <defs>
  <style type="text/css">*{stroke-linejoin: round; stroke-linecap: butt}</style>
 </defs>
 <g id="figure_1">
  <g id="patch_1">
   <path d="M 0 697.6 
L 942.4 697.6 
L 942.4 0 
L 0 0 
L 0 697.6 
z
" style="fill: none"/>
  </g>
  <g id="axes_1">
   <g id="line2d_1">
    <path d="M 142.830769 138.3744 
L 142.830769 212.16 
" clip-path="url(#p03265031cf)" style="fill: none; stroke: #73726c; stroke-opacity: 0.8; stroke-width: 0.9; stroke-linecap: square"/>
   </g>
   <g id="line2d_2">
    <path d="M 249.907692 83.0352 
L 349.846154 206.0112 
" clip-path="url(#p03265031cf)" style="fill: none; stroke: #73726c; stroke-opacity: 0.8; stroke-width: 0.9; stroke-linecap: square"/>
   </g>
   <g id="line2d_3">
    <path d="M 692.492308 72.7872 
L 592.553846 206.0112 
" clip-path="url(#p03265031cf)" style="fill: none; stroke: #73726c; stroke-opacity: 0.8; stroke-width: 0.9; stroke-linecap: square"/>
   </g>
   <g id="line2d_4">
    <path d="M 799.569231 117.8784 
L 799.569231 307.808 
" clip-path="url(#p03265031cf)" style="fill: none; stroke: #73726c; stroke-opacity: 0.8; stroke-width: 0.9; stroke-linecap: square"/>
   </g>
   <g id="line2d_5">
    <path d="M 471.2 322.8384 
L 471.2 417.12 
" clip-path="url(#p03265031cf)" style="fill: none; stroke: #73726c; stroke-opacity: 0.8; stroke-width: 0.9; stroke-linecap: square"/>
   </g>
   <g id="line2d_6">
    <path d="M 471.2 322.8384 
L 35.753846 482.7072 
" clip-path="url(#p03265031cf)" style="fill: none; stroke: #73726c; stroke-opacity: 0.8; stroke-width: 0.9; stroke-linecap: square"/>
   </g>
   <g id="line2d_7">
    <path d="M 799.569231 117.8784 
L 278.461538 482.7072 
" clip-path="url(#p03265031cf)" style="fill: none; stroke-dasharray: 3.33,1.44; stroke-dashoffset: 0; stroke: #73726c; stroke-opacity: 0.55; stroke-width: 0.9"/>
   </g>
   <g id="patch_2">
    <path d="M 35.753846 138.3744 
L 249.907692 138.3744 
L 249.907692 27.696 
L 35.753846 27.696 
z
" clip-path="url(#p03265031cf)" style="fill: #ffffff; stroke: #5f5e5a; stroke-linejoin: miter"/>
   </g>
   <g id="patch_3">
    <path d="M 692.492308 117.8784 
L 906.646154 117.8784 
L 906.646154 27.696 
L 692.492308 27.696 
z
" clip-path="url(#p03265031cf)" style="fill: #ffffff; stroke: #5f5e5a; stroke-linejoin: miter"/>
   </g>
   <g id="patch_4">
    <path d="M 35.753846 322.8384 
L 249.907692 322.8384 
L 249.907692 212.16 
L 35.753846 212.16 
z
" clip-path="url(#p03265031cf)" style="fill: #ffffff; stroke: #185fa5; stroke-linejoin: miter"/>
   </g>
   <g id="patch_5">
    <path d="M 349.846154 322.8384 
L 592.553846 322.8384 
L 592.553846 89.184 
L 349.846154 89.184 
z
" clip-path="url(#p03265031cf)" style="fill: #ffffff; stroke: #993c1d; stroke-linejoin: miter"/>
   </g>
   <g id="patch_6">
    <path d="M 35.753846 548.2944 
L 278.461538 548.2944 
L 278.461538 417.12 
L 35.753846 417.12 
z
" clip-path="url(#p03265031cf)" style="fill: #ffffff; stroke: #0f6e56; stroke-linejoin: miter"/>
   </g>
   <g id="patch_7">
    <path d="M 349.846154 527.7984 
L 592.553846 527.7984 
L 592.553846 417.12 
L 349.846154 417.12 
z
" clip-path="url(#p03265031cf)" style="fill: #ffffff; stroke: #0f6e56; stroke-linejoin: miter"/>
   </g>
   <g id="patch_8">
    <path d="M 692.492308 418.4864 
L 906.646154 418.4864 
L 906.646154 307.808 
L 692.492308 307.808 
z
" clip-path="url(#p03265031cf)" style="fill: #ffffff; stroke: #0f6e56; stroke-linejoin: miter"/>
   </g>
   <g id="patch_9">
    <path d="M 35.753846 97.3824 
L 249.907692 97.3824 
L 249.907692 76.8864 
L 35.753846 76.8864 
z
" clip-path="url(#p03265031cf)" style="fill: #f7f6f1"/>
   </g>
   <g id="patch_10">
    <path d="M 35.753846 138.3744 
L 249.907692 138.3744 
L 249.907692 117.8784 
L 35.753846 117.8784 
z
" clip-path="url(#p03265031cf)" style="fill: #f7f6f1"/>
   </g>
   <g id="patch_11">
    <path d="M 692.492308 97.3824 
L 906.646154 97.3824 
L 906.646154 76.8864 
L 692.492308 76.8864 
z
" clip-path="url(#p03265031cf)" style="fill: #f7f6f1"/>
   </g>
   <g id="patch_12">
    <path d="M 35.753846 281.8464 
L 249.907692 281.8464 
L 249.907692 261.3504 
L 35.753846 261.3504 
z
" clip-path="url(#p03265031cf)" style="fill: #f7f6f1"/>
   </g>
   <g id="patch_13">
    <path d="M 35.753846 322.8384 
L 249.907692 322.8384 
L 249.907692 302.3424 
L 35.753846 302.3424 
z
" clip-path="url(#p03265031cf)" style="fill: #f7f6f1"/>
   </g>
   <g id="patch_14">
    <path d="M 349.846154 158.8704 
L 592.553846 158.8704 
L 592.553846 138.3744 
L 349.846154 138.3744 
z
" clip-path="url(#p03265031cf)" style="fill: #f7f6f1"/>
   </g>
   <g id="patch_15">
    <path d="M 349.846154 199.8624 
L 592.553846 199.8624 
L 592.553846 179.3664 
L 349.846154 179.3664 
z
" clip-path="url(#p03265031cf)" style="fill: #f7f6f1"/>
   </g>
   <g id="patch_16">
    <path d="M 349.846154 240.8544 
L 592.553846 240.8544 
L 592.553846 220.3584 
L 349.846154 220.3584 
z
" clip-path="url(#p03265031cf)" style="fill: #f7f6f1"/>
   </g>
   <g id="patch_17">
    <path d="M 349.846154 281.8464 
L 592.553846 281.8464 
L 592.553846 261.3504 
L 349.846154 261.3504 
z
" clip-path="url(#p03265031cf)" style="fill: #f7f6f1"/>
   </g>
   <g id="patch_18">
    <path d="M 349.846154 322.8384 
L 592.553846 322.8384 
L 592.553846 302.3424 
L 349.846154 302.3424 
z
" clip-path="url(#p03265031cf)" style="fill: #f7f6f1"/>
   </g>
   <g id="patch_19">
    <path d="M 35.753846 486.8064 
L 278.461538 486.8064 
L 278.461538 466.3104 
L 35.753846 466.3104 
z
" clip-path="url(#p03265031cf)" style="fill: #f7f6f1"/>
   </g>
   <g id="patch_20">
    <path d="M 35.753846 527.7984 
L 278.461538 527.7984 
L 278.461538 507.3024 
L 35.753846 507.3024 
z
" clip-path="url(#p03265031cf)" style="fill: #f7f6f1"/>
   </g>
   <g id="patch_21">
    <path d="M 349.846154 486.8064 
L 592.553846 486.8064 
L 592.553846 466.3104 
L 349.846154 466.3104 
z
" clip-path="url(#p03265031cf)" style="fill: #f7f6f1"/>
   </g>
   <g id="patch_22">
    <path d="M 349.846154 527.7984 
L 592.553846 527.7984 
L 592.553846 507.3024 
L 349.846154 507.3024 
z
" clip-path="url(#p03265031cf)" style="fill: #f7f6f1"/>
   </g>
   <g id="patch_23">
    <path d="M 692.492308 377.4944 
L 906.646154 377.4944 
L 906.646154 356.9984 
L 692.492308 356.9984 
z
" clip-path="url(#p03265031cf)" style="fill: #f7f6f1"/>
   </g>
   <g id="patch_24">
    <path d="M 692.492308 418.4864 
L 906.646154 418.4864 
L 906.646154 397.9904 
L 692.492308 397.9904 
z
" clip-path="url(#p03265031cf)" style="fill: #f7f6f1"/>
   </g>
   <g id="patch_25">
    <path d="M 35.753846 56.3904 
L 249.907692 56.3904 
L 249.907692 27.696 
L 35.753846 27.696 
z
" clip-path="url(#p03265031cf)" style="fill: #f1efe8; stroke: #5f5e5a; stroke-linejoin: miter"/>
   </g>
   <g id="patch_26">
    <path d="M 692.492308 56.3904 
L 906.646154 56.3904 
L 906.646154 27.696 
L 692.492308 27.696 
z
" clip-path="url(#p03265031cf)" style="fill: #f1efe8; stroke: #5f5e5a; stroke-linejoin: miter"/>
   </g>
   <g id="patch_27">
    <path d="M 35.753846 240.8544 
L 249.907692 240.8544 
L 249.907692 212.16 
L 35.753846 212.16 
z
" clip-path="url(#p03265031cf)" style="fill: #e6f1fb; stroke: #185fa5; stroke-linejoin: miter"/>
   </g>
   <g id="patch_28">
    <path d="M 349.846154 117.8784 
L 592.553846 117.8784 
L 592.553846 89.184 
L 349.846154 89.184 
z
" clip-path="url(#p03265031cf)" style="fill: #faece7; stroke: #993c1d; stroke-linejoin: miter"/>
   </g>
   <g id="patch_29">
    <path d="M 35.753846 445.8144 
L 278.461538 445.8144 
L 278.461538 417.12 
L 35.753846 417.12 
z
" clip-path="url(#p03265031cf)" style="fill: #e1f5ee; stroke: #0f6e56; stroke-linejoin: miter"/>
   </g>
   <g id="patch_30">
    <path d="M 349.846154 445.8144 
L 592.553846 445.8144 
L 592.553846 417.12 
L 349.846154 417.12 
z
" clip-path="url(#p03265031cf)" style="fill: #e1f5ee; stroke: #0f6e56; stroke-linejoin: miter"/>
   </g>
   <g id="patch_31">
    <path d="M 692.492308 336.5024 
L 906.646154 336.5024 
L 906.646154 307.808 
L 692.492308 307.808 
z
" clip-path="url(#p03265031cf)" style="fill: #e1f5ee; stroke: #0f6e56; stroke-linejoin: miter"/>
   </g>
   <g id="text_1">
    <!-- COMPANY -->
    <g style="fill: #2c2c2a" transform="translate(116.440808 44.664606) scale(0.095 -0.095)">
     <defs>
      <path id="DejaVuSans-Bold-43" d="M 4288 256 
Q 3956 84 3597 -3 
Q 3238 -91 2847 -91 
Q 1681 -91 1000 561 
Q 319 1213 319 2328 
Q 319 3447 1000 4098 
Q 1681 4750 2847 4750 
Q 3238 4750 3597 4662 
Q 3956 4575 4288 4403 
L 4288 3438 
Q 3953 3666 3628 3772 
Q 3303 3878 2944 3878 
Q 2300 3878 1931 3465 
Q 1563 3053 1563 2328 
Q 1563 1606 1931 1193 
Q 2300 781 2944 781 
Q 3303 781 3628 887 
Q 3953 994 4288 1222 
L 4288 256 
z
" transform="scale(0.015625)"/>
      <path id="DejaVuSans-Bold-4f" d="M 2719 3878 
Q 2169 3878 1866 3472 
Q 1563 3066 1563 2328 
Q 1563 1594 1866 1187 
Q 2169 781 2719 781 
Q 3272 781 3575 1187 
Q 3878 1594 3878 2328 
Q 3878 3066 3575 3472 
Q 3272 3878 2719 3878 
z
M 2719 4750 
Q 3844 4750 4481 4106 
Q 5119 3463 5119 2328 
Q 5119 1197 4481 553 
Q 3844 -91 2719 -91 
Q 1597 -91 958 553 
Q 319 1197 319 2328 
Q 319 3463 958 4106 
Q 1597 4750 2719 4750 
z
" transform="scale(0.015625)"/>
      <path id="DejaVuSans-Bold-4d" d="M 588 4666 
L 2119 4666 
L 3181 2169 
L 4250 4666 
L 5778 4666 
L 5778 0 
L 4641 0 
L 4641 3413 
L 3566 897 
L 2803 897 
L 1728 3413 
L 1728 0 
L 588 0 
L 588 4666 
z
" transform="scale(0.015625)"/>
      <path id="DejaVuSans-Bold-50" d="M 588 4666 
L 2584 4666 
Q 3475 4666 3951 4270 
Q 4428 3875 4428 3144 
Q 4428 2409 3951 2014 
Q 3475 1619 2584 1619 
L 1791 1619 
L 1791 0 
L 588 0 
L 588 4666 
z
M 1791 3794 
L 1791 2491 
L 2456 2491 
Q 2806 2491 2997 2661 
Q 3188 2831 3188 3144 
Q 3188 3456 2997 3625 
Q 2806 3794 2456 3794 
L 1791 3794 
z
" transform="scale(0.015625)"/>
      <path id="DejaVuSans-Bold-41" d="M 3419 850 
L 1538 850 
L 1241 0 
L 31 0 
L 1759 4666 
L 3194 4666 
L 4922 0 
L 3713 0 
L 3419 850 
z
M 1838 1716 
L 3116 1716 
L 2478 3572 
L 1838 1716 
z
" transform="scale(0.015625)"/>
      <path id="DejaVuSans-Bold-4e" d="M 588 4666 
L 1931 4666 
L 3628 1466 
L 3628 4666 
L 4769 4666 
L 4769 0 
L 3425 0 
L 1728 3200 
L 1728 0 
L 588 0 
L 588 4666 
z
" transform="scale(0.015625)"/>
      <path id="DejaVuSans-Bold-59" d="M -63 4666 
L 1253 4666 
L 2316 3003 
L 3378 4666 
L 4697 4666 
L 2919 1966 
L 2919 0 
L 1716 0 
L 1716 1966 
L -63 4666 
z
" transform="scale(0.015625)"/>
     </defs>
     <use xlink:href="#DejaVuSans-Bold-43"/>
     <use xlink:href="#DejaVuSans-Bold-4f" transform="translate(73.388672 0)"/>
     <use xlink:href="#DejaVuSans-Bold-4d" transform="translate(158.398438 0)"/>
     <use xlink:href="#DejaVuSans-Bold-50" transform="translate(257.910156 0)"/>
     <use xlink:href="#DejaVuSans-Bold-41" transform="translate(322.076172 0)"/>
     <use xlink:href="#DejaVuSans-Bold-4e" transform="translate(399.46875 0)"/>
     <use xlink:href="#DejaVuSans-Bold-59" transform="translate(483.160156 0)"/>
    </g>
   </g>
   <g id="text_2">
    <!-- id -->
    <g style="fill: #2c2c2a" transform="translate(44.32 68.735525) scale(0.076 -0.076)">
     <defs>
      <path id="DejaVuSans-69" d="M 603 3500 
L 1178 3500 
L 1178 0 
L 603 0 
L 603 3500 
z
M 603 4863 
L 1178 4863 
L 1178 4134 
L 603 4134 
L 603 4863 
z
" transform="scale(0.015625)"/>
      <path id="DejaVuSans-64" d="M 2906 2969 
L 2906 4863 
L 3481 4863 
L 3481 0 
L 2906 0 
L 2906 525 
Q 2725 213 2448 61 
Q 2172 -91 1784 -91 
Q 1150 -91 751 415 
Q 353 922 353 1747 
Q 353 2572 751 3078 
Q 1150 3584 1784 3584 
Q 2172 3584 2448 3432 
Q 2725 3281 2906 2969 
z
M 947 1747 
Q 947 1113 1208 752 
Q 1469 391 1925 391 
Q 2381 391 2643 752 
Q 2906 1113 2906 1747 
Q 2906 2381 2643 2742 
Q 2381 3103 1925 3103 
Q 1469 3103 1208 2742 
Q 947 2381 947 1747 
z
" transform="scale(0.015625)"/>
     </defs>
     <use xlink:href="#DejaVuSans-69"/>
     <use xlink:href="#DejaVuSans-64" transform="translate(27.783203 0)"/>
    </g>
   </g>
   <g id="text_3">
    <!-- PK -->
    <g style="fill: #185fa5" transform="translate(232.782038 68.514775) scale(0.068 -0.068)">
     <defs>
      <path id="DejaVuSans-50" d="M 1259 4147 
L 1259 2394 
L 2053 2394 
Q 2494 2394 2734 2622 
Q 2975 2850 2975 3272 
Q 2975 3691 2734 3919 
Q 2494 4147 2053 4147 
L 1259 4147 
z
M 628 4666 
L 2053 4666 
Q 2838 4666 3239 4311 
Q 3641 3956 3641 3272 
Q 3641 2581 3239 2228 
Q 2838 1875 2053 1875 
L 1259 1875 
L 1259 0 
L 628 0 
L 628 4666 
z
" transform="scale(0.015625)"/>
      <path id="DejaVuSans-4b" d="M 628 4666 
L 1259 4666 
L 1259 2694 
L 3353 4666 
L 4166 4666 
L 1850 2491 
L 4331 0 
L 3500 0 
L 1259 2247 
L 1259 0 
L 628 0 
L 628 4666 
z
" transform="scale(0.015625)"/>
     </defs>
     <use xlink:href="#DejaVuSans-50"/>
     <use xlink:href="#DejaVuSans-4b" transform="translate(60.302734 0)"/>
    </g>
   </g>
   <g id="text_4">
    <!-- name -->
    <g style="fill: #2c2c2a" transform="translate(44.32 89.231525) scale(0.076 -0.076)">
     <defs>
      <path id="DejaVuSans-6e" d="M 3513 2113 
L 3513 0 
L 2938 0 
L 2938 2094 
Q 2938 2591 2744 2837 
Q 2550 3084 2163 3084 
Q 1697 3084 1428 2787 
Q 1159 2491 1159 1978 
L 1159 0 
L 581 0 
L 581 3500 
L 1159 3500 
L 1159 2956 
Q 1366 3272 1645 3428 
Q 1925 3584 2291 3584 
Q 2894 3584 3203 3211 
Q 3513 2838 3513 2113 
z
" transform="scale(0.015625)"/>
      <path id="DejaVuSans-61" d="M 2194 1759 
Q 1497 1759 1228 1600 
Q 959 1441 959 1056 
Q 959 750 1161 570 
Q 1363 391 1709 391 
Q 2188 391 2477 730 
Q 2766 1069 2766 1631 
L 2766 1759 
L 2194 1759 
z
M 3341 1997 
L 3341 0 
L 2766 0 
L 2766 531 
Q 2569 213 2275 61 
Q 1981 -91 1556 -91 
Q 1019 -91 701 211 
Q 384 513 384 1019 
Q 384 1609 779 1909 
Q 1175 2209 1959 2209 
L 2766 2209 
L 2766 2266 
Q 2766 2663 2505 2880 
Q 2244 3097 1772 3097 
Q 1472 3097 1187 3025 
Q 903 2953 641 2809 
L 641 3341 
Q 956 3463 1253 3523 
Q 1550 3584 1831 3584 
Q 2591 3584 2966 3190 
Q 3341 2797 3341 1997 
z
" transform="scale(0.015625)"/>
      <path id="DejaVuSans-6d" d="M 3328 2828 
Q 3544 3216 3844 3400 
Q 4144 3584 4550 3584 
Q 5097 3584 5394 3201 
Q 5691 2819 5691 2113 
L 5691 0 
L 5113 0 
L 5113 2094 
Q 5113 2597 4934 2840 
Q 4756 3084 4391 3084 
Q 3944 3084 3684 2787 
Q 3425 2491 3425 1978 
L 3425 0 
L 2847 0 
L 2847 2094 
Q 2847 2600 2669 2842 
Q 2491 3084 2119 3084 
Q 1678 3084 1418 2786 
Q 1159 2488 1159 1978 
L 1159 0 
L 581 0 
L 581 3500 
L 1159 3500 
L 1159 2956 
Q 1356 3278 1631 3431 
Q 1906 3584 2284 3584 
Q 2666 3584 2933 3390 
Q 3200 3197 3328 2828 
z
" transform="scale(0.015625)"/>
      <path id="DejaVuSans-65" d="M 3597 1894 
L 3597 1613 
L 953 1613 
Q 991 1019 1311 708 
Q 1631 397 2203 397 
Q 2534 397 2845 478 
Q 3156 559 3463 722 
L 3463 178 
Q 3153 47 2828 -22 
Q 2503 -91 2169 -91 
Q 1331 -91 842 396 
Q 353 884 353 1716 
Q 353 2575 817 3079 
Q 1281 3584 2069 3584 
Q 2775 3584 3186 3129 
Q 3597 2675 3597 1894 
z
M 3022 2063 
Q 3016 2534 2758 2815 
Q 2500 3097 2075 3097 
Q 1594 3097 1305 2825 
Q 1016 2553 972 2059 
L 3022 2063 
z
" transform="scale(0.015625)"/>
     </defs>
     <use xlink:href="#DejaVuSans-6e"/>
     <use xlink:href="#DejaVuSans-61" transform="translate(63.378906 0)"/>
     <use xlink:href="#DejaVuSans-6d" transform="translate(124.658203 0)"/>
     <use xlink:href="#DejaVuSans-65" transform="translate(222.070312 0)"/>
    </g>
   </g>
   <g id="text_5">
    <!-- inn -->
    <g style="fill: #2c2c2a" transform="translate(44.32 109.727525) scale(0.076 -0.076)">
     <use xlink:href="#DejaVuSans-69"/>
     <use xlink:href="#DejaVuSans-6e" transform="translate(27.783203 0)"/>
     <use xlink:href="#DejaVuSans-6e" transform="translate(91.162109 0)"/>
    </g>
   </g>
   <g id="text_6">
    <!-- senderCity -->
    <g style="fill: #2c2c2a" transform="translate(44.32 130.223525) scale(0.076 -0.076)">
     <defs>
      <path id="DejaVuSans-73" d="M 2834 3397 
L 2834 2853 
Q 2591 2978 2328 3040 
Q 2066 3103 1784 3103 
Q 1356 3103 1142 2972 
Q 928 2841 928 2578 
Q 928 2378 1081 2264 
Q 1234 2150 1697 2047 
L 1894 2003 
Q 2506 1872 2764 1633 
Q 3022 1394 3022 966 
Q 3022 478 2636 193 
Q 2250 -91 1575 -91 
Q 1294 -91 989 -36 
Q 684 19 347 128 
L 347 722 
Q 666 556 975 473 
Q 1284 391 1588 391 
Q 1994 391 2212 530 
Q 2431 669 2431 922 
Q 2431 1156 2273 1281 
Q 2116 1406 1581 1522 
L 1381 1569 
Q 847 1681 609 1914 
Q 372 2147 372 2553 
Q 372 3047 722 3315 
Q 1072 3584 1716 3584 
Q 2034 3584 2315 3537 
Q 2597 3491 2834 3397 
z
" transform="scale(0.015625)"/>
      <path id="DejaVuSans-72" d="M 2631 2963 
Q 2534 3019 2420 3045 
Q 2306 3072 2169 3072 
Q 1681 3072 1420 2755 
Q 1159 2438 1159 1844 
L 1159 0 
L 581 0 
L 581 3500 
L 1159 3500 
L 1159 2956 
Q 1341 3275 1631 3429 
Q 1922 3584 2338 3584 
Q 2397 3584 2469 3576 
Q 2541 3569 2628 3553 
L 2631 2963 
z
" transform="scale(0.015625)"/>
      <path id="DejaVuSans-43" d="M 4122 4306 
L 4122 3641 
Q 3803 3938 3442 4084 
Q 3081 4231 2675 4231 
Q 1875 4231 1450 3742 
Q 1025 3253 1025 2328 
Q 1025 1406 1450 917 
Q 1875 428 2675 428 
Q 3081 428 3442 575 
Q 3803 722 4122 1019 
L 4122 359 
Q 3791 134 3420 21 
Q 3050 -91 2638 -91 
Q 1578 -91 968 557 
Q 359 1206 359 2328 
Q 359 3453 968 4101 
Q 1578 4750 2638 4750 
Q 3056 4750 3426 4639 
Q 3797 4528 4122 4306 
z
" transform="scale(0.015625)"/>
      <path id="DejaVuSans-74" d="M 1172 4494 
L 1172 3500 
L 2356 3500 
L 2356 3053 
L 1172 3053 
L 1172 1153 
Q 1172 725 1289 603 
Q 1406 481 1766 481 
L 2356 481 
L 2356 0 
L 1766 0 
Q 1100 0 847 248 
Q 594 497 594 1153 
L 594 3053 
L 172 3053 
L 172 3500 
L 594 3500 
L 594 4494 
L 1172 4494 
z
" transform="scale(0.015625)"/>
      <path id="DejaVuSans-79" d="M 2059 -325 
Q 1816 -950 1584 -1140 
Q 1353 -1331 966 -1331 
L 506 -1331 
L 506 -850 
L 844 -850 
Q 1081 -850 1212 -737 
Q 1344 -625 1503 -206 
L 1606 56 
L 191 3500 
L 800 3500 
L 1894 763 
L 2988 3500 
L 3597 3500 
L 2059 -325 
z
" transform="scale(0.015625)"/>
     </defs>
     <use xlink:href="#DejaVuSans-73"/>
     <use xlink:href="#DejaVuSans-65" transform="translate(52.099609 0)"/>
     <use xlink:href="#DejaVuSans-6e" transform="translate(113.623047 0)"/>
     <use xlink:href="#DejaVuSans-64" transform="translate(177.001953 0)"/>
     <use xlink:href="#DejaVuSans-65" transform="translate(240.478516 0)"/>
     <use xlink:href="#DejaVuSans-72" transform="translate(302.001953 0)"/>
     <use xlink:href="#DejaVuSans-43" transform="translate(343.115234 0)"/>
     <use xlink:href="#DejaVuSans-69" transform="translate(412.939453 0)"/>
     <use xlink:href="#DejaVuSans-74" transform="translate(440.722656 0)"/>
     <use xlink:href="#DejaVuSans-79" transform="translate(479.931641 0)"/>
    </g>
   </g>
   <g id="text_7">
    <!-- CARRIER -->
    <g style="fill: #2c2c2a" transform="translate(776.422629 44.664606) scale(0.095 -0.095)">
     <defs>
      <path id="DejaVuSans-Bold-52" d="M 2297 2597 
Q 2675 2597 2839 2737 
Q 3003 2878 3003 3200 
Q 3003 3519 2839 3656 
Q 2675 3794 2297 3794 
L 1791 3794 
L 1791 2597 
L 2297 2597 
z
M 1791 1766 
L 1791 0 
L 588 0 
L 588 4666 
L 2425 4666 
Q 3347 4666 3776 4356 
Q 4206 4047 4206 3378 
Q 4206 2916 3982 2619 
Q 3759 2322 3309 2181 
Q 3556 2125 3751 1926 
Q 3947 1728 4147 1325 
L 4800 0 
L 3519 0 
L 2950 1159 
Q 2778 1509 2601 1637 
Q 2425 1766 2131 1766 
L 1791 1766 
z
" transform="scale(0.015625)"/>
      <path id="DejaVuSans-Bold-49" d="M 588 4666 
L 1791 4666 
L 1791 0 
L 588 0 
L 588 4666 
z
" transform="scale(0.015625)"/>
      <path id="DejaVuSans-Bold-45" d="M 588 4666 
L 3834 4666 
L 3834 3756 
L 1791 3756 
L 1791 2888 
L 3713 2888 
L 3713 1978 
L 1791 1978 
L 1791 909 
L 3903 909 
L 3903 0 
L 588 0 
L 588 4666 
z
" transform="scale(0.015625)"/>
     </defs>
     <use xlink:href="#DejaVuSans-Bold-43"/>
     <use xlink:href="#DejaVuSans-Bold-41" transform="translate(73.388672 0)"/>
     <use xlink:href="#DejaVuSans-Bold-52" transform="translate(150.78125 0)"/>
     <use xlink:href="#DejaVuSans-Bold-52" transform="translate(227.783203 0)"/>
     <use xlink:href="#DejaVuSans-Bold-49" transform="translate(304.785156 0)"/>
     <use xlink:href="#DejaVuSans-Bold-45" transform="translate(341.992188 0)"/>
     <use xlink:href="#DejaVuSans-Bold-52" transform="translate(410.302734 0)"/>
    </g>
   </g>
   <g id="text_8">
    <!-- id -->
    <g style="fill: #2c2c2a" transform="translate(701.058462 68.735525) scale(0.076 -0.076)">
     <use xlink:href="#DejaVuSans-69"/>
     <use xlink:href="#DejaVuSans-64" transform="translate(27.783203 0)"/>
    </g>
   </g>
   <g id="text_9">
    <!-- PK -->
    <g style="fill: #185fa5" transform="translate(889.5205 68.514775) scale(0.068 -0.068)">
     <use xlink:href="#DejaVuSans-50"/>
     <use xlink:href="#DejaVuSans-4b" transform="translate(60.302734 0)"/>
    </g>
   </g>
   <g id="text_10">
    <!-- apishipCode -->
    <g style="fill: #2c2c2a" transform="translate(701.058462 89.231525) scale(0.076 -0.076)">
     <defs>
      <path id="DejaVuSans-70" d="M 1159 525 
L 1159 -1331 
L 581 -1331 
L 581 3500 
L 1159 3500 
L 1159 2969 
Q 1341 3281 1617 3432 
Q 1894 3584 2278 3584 
Q 2916 3584 3314 3078 
Q 3713 2572 3713 1747 
Q 3713 922 3314 415 
Q 2916 -91 2278 -91 
Q 1894 -91 1617 61 
Q 1341 213 1159 525 
z
M 3116 1747 
Q 3116 2381 2855 2742 
Q 2594 3103 2138 3103 
Q 1681 3103 1420 2742 
Q 1159 2381 1159 1747 
Q 1159 1113 1420 752 
Q 1681 391 2138 391 
Q 2594 391 2855 752 
Q 3116 1113 3116 1747 
z
" transform="scale(0.015625)"/>
      <path id="DejaVuSans-68" d="M 3513 2113 
L 3513 0 
L 2938 0 
L 2938 2094 
Q 2938 2591 2744 2837 
Q 2550 3084 2163 3084 
Q 1697 3084 1428 2787 
Q 1159 2491 1159 1978 
L 1159 0 
L 581 0 
L 581 4863 
L 1159 4863 
L 1159 2956 
Q 1366 3272 1645 3428 
Q 1925 3584 2291 3584 
Q 2894 3584 3203 3211 
Q 3513 2838 3513 2113 
z
" transform="scale(0.015625)"/>
      <path id="DejaVuSans-6f" d="M 1959 3097 
Q 1497 3097 1228 2736 
Q 959 2375 959 1747 
Q 959 1119 1226 758 
Q 1494 397 1959 397 
Q 2419 397 2687 759 
Q 2956 1122 2956 1747 
Q 2956 2369 2687 2733 
Q 2419 3097 1959 3097 
z
M 1959 3584 
Q 2709 3584 3137 3096 
Q 3566 2609 3566 1747 
Q 3566 888 3137 398 
Q 2709 -91 1959 -91 
Q 1206 -91 779 398 
Q 353 888 353 1747 
Q 353 2609 779 3096 
Q 1206 3584 1959 3584 
z
" transform="scale(0.015625)"/>
     </defs>
     <use xlink:href="#DejaVuSans-61"/>
     <use xlink:href="#DejaVuSans-70" transform="translate(61.279297 0)"/>
     <use xlink:href="#DejaVuSans-69" transform="translate(124.755859 0)"/>
     <use xlink:href="#DejaVuSans-73" transform="translate(152.539062 0)"/>
     <use xlink:href="#DejaVuSans-68" transform="translate(204.638672 0)"/>
     <use xlink:href="#DejaVuSans-69" transform="translate(268.017578 0)"/>
     <use xlink:href="#DejaVuSans-70" transform="translate(295.800781 0)"/>
     <use xlink:href="#DejaVuSans-43" transform="translate(359.277344 0)"/>
     <use xlink:href="#DejaVuSans-6f" transform="translate(429.101562 0)"/>
     <use xlink:href="#DejaVuSans-64" transform="translate(490.283203 0)"/>
     <use xlink:href="#DejaVuSans-65" transform="translate(553.759766 0)"/>
    </g>
   </g>
   <g id="text_11">
    <!-- name -->
    <g style="fill: #2c2c2a" transform="translate(701.058462 109.727525) scale(0.076 -0.076)">
     <use xlink:href="#DejaVuSans-6e"/>
     <use xlink:href="#DejaVuSans-61" transform="translate(63.378906 0)"/>
     <use xlink:href="#DejaVuSans-6d" transform="translate(124.658203 0)"/>
     <use xlink:href="#DejaVuSans-65" transform="translate(222.070312 0)"/>
    </g>
   </g>
   <g id="text_12">
    <!-- USER -->
    <g style="fill: #042c53" transform="translate(128.650535 229.128606) scale(0.095 -0.095)">
     <defs>
      <path id="DejaVuSans-Bold-55" d="M 588 4666 
L 1791 4666 
L 1791 1869 
Q 1791 1291 1980 1042 
Q 2169 794 2597 794 
Q 3028 794 3217 1042 
Q 3406 1291 3406 1869 
L 3406 4666 
L 4609 4666 
L 4609 1869 
Q 4609 878 4112 393 
Q 3616 -91 2597 -91 
Q 1581 -91 1084 393 
Q 588 878 588 1869 
L 588 4666 
z
" transform="scale(0.015625)"/>
      <path id="DejaVuSans-Bold-53" d="M 3834 4519 
L 3834 3531 
Q 3450 3703 3084 3790 
Q 2719 3878 2394 3878 
Q 1963 3878 1756 3759 
Q 1550 3641 1550 3391 
Q 1550 3203 1689 3098 
Q 1828 2994 2194 2919 
L 2706 2816 
Q 3484 2659 3812 2340 
Q 4141 2022 4141 1434 
Q 4141 663 3683 286 
Q 3225 -91 2284 -91 
Q 1841 -91 1394 -6 
Q 947 78 500 244 
L 500 1259 
Q 947 1022 1364 901 
Q 1781 781 2169 781 
Q 2563 781 2772 912 
Q 2981 1044 2981 1288 
Q 2981 1506 2839 1625 
Q 2697 1744 2272 1838 
L 1806 1941 
Q 1106 2091 782 2419 
Q 459 2747 459 3303 
Q 459 4000 909 4375 
Q 1359 4750 2203 4750 
Q 2588 4750 2994 4692 
Q 3400 4634 3834 4519 
z
" transform="scale(0.015625)"/>
     </defs>
     <use xlink:href="#DejaVuSans-Bold-55"/>
     <use xlink:href="#DejaVuSans-Bold-53" transform="translate(81.201172 0)"/>
     <use xlink:href="#DejaVuSans-Bold-45" transform="translate(153.222656 0)"/>
     <use xlink:href="#DejaVuSans-Bold-52" transform="translate(221.533203 0)"/>
    </g>
   </g>
   <g id="text_13">
    <!-- id -->
    <g style="fill: #2c2c2a" transform="translate(44.32 253.199525) scale(0.076 -0.076)">
     <use xlink:href="#DejaVuSans-69"/>
     <use xlink:href="#DejaVuSans-64" transform="translate(27.783203 0)"/>
    </g>
   </g>
   <g id="text_14">
    <!-- PK -->
    <g style="fill: #185fa5" transform="translate(232.782038 252.978775) scale(0.068 -0.068)">
     <use xlink:href="#DejaVuSans-50"/>
     <use xlink:href="#DejaVuSans-4b" transform="translate(60.302734 0)"/>
    </g>
   </g>
   <g id="text_15">
    <!-- companyId -->
    <g style="fill: #2c2c2a" transform="translate(44.32 273.695525) scale(0.076 -0.076)">
     <defs>
      <path id="DejaVuSans-63" d="M 3122 3366 
L 3122 2828 
Q 2878 2963 2633 3030 
Q 2388 3097 2138 3097 
Q 1578 3097 1268 2742 
Q 959 2388 959 1747 
Q 959 1106 1268 751 
Q 1578 397 2138 397 
Q 2388 397 2633 464 
Q 2878 531 3122 666 
L 3122 134 
Q 2881 22 2623 -34 
Q 2366 -91 2075 -91 
Q 1284 -91 818 406 
Q 353 903 353 1747 
Q 353 2603 823 3093 
Q 1294 3584 2113 3584 
Q 2378 3584 2631 3529 
Q 2884 3475 3122 3366 
z
" transform="scale(0.015625)"/>
      <path id="DejaVuSans-49" d="M 628 4666 
L 1259 4666 
L 1259 0 
L 628 0 
L 628 4666 
z
" transform="scale(0.015625)"/>
     </defs>
     <use xlink:href="#DejaVuSans-63"/>
     <use xlink:href="#DejaVuSans-6f" transform="translate(54.980469 0)"/>
     <use xlink:href="#DejaVuSans-6d" transform="translate(116.162109 0)"/>
     <use xlink:href="#DejaVuSans-70" transform="translate(213.574219 0)"/>
     <use xlink:href="#DejaVuSans-61" transform="translate(277.050781 0)"/>
     <use xlink:href="#DejaVuSans-6e" transform="translate(338.330078 0)"/>
     <use xlink:href="#DejaVuSans-79" transform="translate(401.708984 0)"/>
     <use xlink:href="#DejaVuSans-49" transform="translate(460.888672 0)"/>
     <use xlink:href="#DejaVuSans-64" transform="translate(490.380859 0)"/>
    </g>
   </g>
   <g id="text_16">
    <!-- FK -->
    <g style="fill: #993c1d" transform="translate(232.971163 273.474775) scale(0.068 -0.068)">
     <defs>
      <path id="DejaVuSans-46" d="M 628 4666 
L 3309 4666 
L 3309 4134 
L 1259 4134 
L 1259 2759 
L 3109 2759 
L 3109 2228 
L 1259 2228 
L 1259 0 
L 628 0 
L 628 4666 
z
" transform="scale(0.015625)"/>
     </defs>
     <use xlink:href="#DejaVuSans-46"/>
     <use xlink:href="#DejaVuSans-4b" transform="translate(57.519531 0)"/>
    </g>
   </g>
   <g id="text_17">
    <!-- email -->
    <g style="fill: #2c2c2a" transform="translate(44.32 294.191525) scale(0.076 -0.076)">
     <defs>
      <path id="DejaVuSans-6c" d="M 603 4863 
L 1178 4863 
L 1178 0 
L 603 0 
L 603 4863 
z
" transform="scale(0.015625)"/>
     </defs>
     <use xlink:href="#DejaVuSans-65"/>
     <use xlink:href="#DejaVuSans-6d" transform="translate(61.523438 0)"/>
     <use xlink:href="#DejaVuSans-61" transform="translate(158.935547 0)"/>
     <use xlink:href="#DejaVuSans-69" transform="translate(220.214844 0)"/>
     <use xlink:href="#DejaVuSans-6c" transform="translate(247.998047 0)"/>
    </g>
   </g>
   <g id="text_18">
    <!-- role -->
    <g style="fill: #2c2c2a" transform="translate(44.32 314.687525) scale(0.076 -0.076)">
     <use xlink:href="#DejaVuSans-72"/>
     <use xlink:href="#DejaVuSans-6f" transform="translate(38.863281 0)"/>
     <use xlink:href="#DejaVuSans-6c" transform="translate(100.044922 0)"/>
     <use xlink:href="#DejaVuSans-65" transform="translate(127.828125 0)"/>
    </g>
   </g>
   <g id="text_19">
    <!-- SHIPMENT -->
    <g style="fill: #4a1b0c" transform="translate(443.367969 106.152606) scale(0.095 -0.095)">
     <defs>
      <path id="DejaVuSans-Bold-48" d="M 588 4666 
L 1791 4666 
L 1791 2888 
L 3566 2888 
L 3566 4666 
L 4769 4666 
L 4769 0 
L 3566 0 
L 3566 1978 
L 1791 1978 
L 1791 0 
L 588 0 
L 588 4666 
z
" transform="scale(0.015625)"/>
      <path id="DejaVuSans-Bold-54" d="M 31 4666 
L 4331 4666 
L 4331 3756 
L 2784 3756 
L 2784 0 
L 1581 0 
L 1581 3756 
L 31 3756 
L 31 4666 
z
" transform="scale(0.015625)"/>
     </defs>
     <use xlink:href="#DejaVuSans-Bold-53"/>
     <use xlink:href="#DejaVuSans-Bold-48" transform="translate(72.021484 0)"/>
     <use xlink:href="#DejaVuSans-Bold-49" transform="translate(155.712891 0)"/>
     <use xlink:href="#DejaVuSans-Bold-50" transform="translate(192.919922 0)"/>
     <use xlink:href="#DejaVuSans-Bold-4d" transform="translate(266.210938 0)"/>
     <use xlink:href="#DejaVuSans-Bold-45" transform="translate(365.722656 0)"/>
     <use xlink:href="#DejaVuSans-Bold-4e" transform="translate(434.033203 0)"/>
     <use xlink:href="#DejaVuSans-Bold-54" transform="translate(517.724609 0)"/>
    </g>
   </g>
   <g id="text_20">
    <!-- id -->
    <g style="fill: #2c2c2a" transform="translate(358.412308 130.223525) scale(0.076 -0.076)">
     <use xlink:href="#DejaVuSans-69"/>
     <use xlink:href="#DejaVuSans-64" transform="translate(27.783203 0)"/>
    </g>
   </g>
   <g id="text_21">
    <!-- PK -->
    <g style="fill: #185fa5" transform="translate(575.428192 130.002775) scale(0.068 -0.068)">
     <use xlink:href="#DejaVuSans-50"/>
     <use xlink:href="#DejaVuSans-4b" transform="translate(60.302734 0)"/>
    </g>
   </g>
   <g id="text_22">
    <!-- companyId -->
    <g style="fill: #2c2c2a" transform="translate(358.412308 150.719525) scale(0.076 -0.076)">
     <use xlink:href="#DejaVuSans-63"/>
     <use xlink:href="#DejaVuSans-6f" transform="translate(54.980469 0)"/>
     <use xlink:href="#DejaVuSans-6d" transform="translate(116.162109 0)"/>
     <use xlink:href="#DejaVuSans-70" transform="translate(213.574219 0)"/>
     <use xlink:href="#DejaVuSans-61" transform="translate(277.050781 0)"/>
     <use xlink:href="#DejaVuSans-6e" transform="translate(338.330078 0)"/>
     <use xlink:href="#DejaVuSans-79" transform="translate(401.708984 0)"/>
     <use xlink:href="#DejaVuSans-49" transform="translate(460.888672 0)"/>
     <use xlink:href="#DejaVuSans-64" transform="translate(490.380859 0)"/>
    </g>
   </g>
   <g id="text_23">
    <!-- FK -->
    <g style="fill: #993c1d" transform="translate(575.617317 150.498775) scale(0.068 -0.068)">
     <use xlink:href="#DejaVuSans-46"/>
     <use xlink:href="#DejaVuSans-4b" transform="translate(57.519531 0)"/>
    </g>
   </g>
   <g id="text_24">
    <!-- carrierId -->
    <g style="fill: #2c2c2a" transform="translate(358.412308 171.215525) scale(0.076 -0.076)">
     <use xlink:href="#DejaVuSans-63"/>
     <use xlink:href="#DejaVuSans-61" transform="translate(54.980469 0)"/>
     <use xlink:href="#DejaVuSans-72" transform="translate(116.259766 0)"/>
     <use xlink:href="#DejaVuSans-72" transform="translate(155.623047 0)"/>
     <use xlink:href="#DejaVuSans-69" transform="translate(196.736328 0)"/>
     <use xlink:href="#DejaVuSans-65" transform="translate(224.519531 0)"/>
     <use xlink:href="#DejaVuSans-72" transform="translate(286.042969 0)"/>
     <use xlink:href="#DejaVuSans-49" transform="translate(327.15625 0)"/>
     <use xlink:href="#DejaVuSans-64" transform="translate(356.648438 0)"/>
    </g>
   </g>
   <g id="text_25">
    <!-- FK -->
    <g style="fill: #993c1d" transform="translate(575.617317 170.994775) scale(0.068 -0.068)">
     <use xlink:href="#DejaVuSans-46"/>
     <use xlink:href="#DejaVuSans-4b" transform="translate(57.519531 0)"/>
    </g>
   </g>
   <g id="text_26">
    <!-- recipientName -->
    <g style="fill: #2c2c2a" transform="translate(358.412308 191.711525) scale(0.076 -0.076)">
     <defs>
      <path id="DejaVuSans-4e" d="M 628 4666 
L 1478 4666 
L 3547 763 
L 3547 4666 
L 4159 4666 
L 4159 0 
L 3309 0 
L 1241 3903 
L 1241 0 
L 628 0 
L 628 4666 
z
" transform="scale(0.015625)"/>
     </defs>
     <use xlink:href="#DejaVuSans-72"/>
     <use xlink:href="#DejaVuSans-65" transform="translate(38.863281 0)"/>
     <use xlink:href="#DejaVuSans-63" transform="translate(100.386719 0)"/>
     <use xlink:href="#DejaVuSans-69" transform="translate(155.367188 0)"/>
     <use xlink:href="#DejaVuSans-70" transform="translate(183.150391 0)"/>
     <use xlink:href="#DejaVuSans-69" transform="translate(246.626953 0)"/>
     <use xlink:href="#DejaVuSans-65" transform="translate(274.410156 0)"/>
     <use xlink:href="#DejaVuSans-6e" transform="translate(335.933594 0)"/>
     <use xlink:href="#DejaVuSans-74" transform="translate(399.3125 0)"/>
     <use xlink:href="#DejaVuSans-4e" transform="translate(438.521484 0)"/>
     <use xlink:href="#DejaVuSans-61" transform="translate(513.326172 0)"/>
     <use xlink:href="#DejaVuSans-6d" transform="translate(574.605469 0)"/>
     <use xlink:href="#DejaVuSans-65" transform="translate(672.017578 0)"/>
    </g>
   </g>
   <g id="text_27">
    <!-- plannedCost -->
    <g style="fill: #2c2c2a" transform="translate(358.412308 212.207525) scale(0.076 -0.076)">
     <use xlink:href="#DejaVuSans-70"/>
     <use xlink:href="#DejaVuSans-6c" transform="translate(63.476562 0)"/>
     <use xlink:href="#DejaVuSans-61" transform="translate(91.259766 0)"/>
     <use xlink:href="#DejaVuSans-6e" transform="translate(152.539062 0)"/>
     <use xlink:href="#DejaVuSans-6e" transform="translate(215.917969 0)"/>
     <use xlink:href="#DejaVuSans-65" transform="translate(279.296875 0)"/>
     <use xlink:href="#DejaVuSans-64" transform="translate(340.820312 0)"/>
     <use xlink:href="#DejaVuSans-43" transform="translate(404.296875 0)"/>
     <use xlink:href="#DejaVuSans-6f" transform="translate(474.121094 0)"/>
     <use xlink:href="#DejaVuSans-73" transform="translate(535.302734 0)"/>
     <use xlink:href="#DejaVuSans-74" transform="translate(587.402344 0)"/>
    </g>
   </g>
   <g id="text_28">
    <!-- actualCost -->
    <g style="fill: #2c2c2a" transform="translate(358.412308 232.703525) scale(0.076 -0.076)">
     <defs>
      <path id="DejaVuSans-75" d="M 544 1381 
L 544 3500 
L 1119 3500 
L 1119 1403 
Q 1119 906 1312 657 
Q 1506 409 1894 409 
Q 2359 409 2629 706 
Q 2900 1003 2900 1516 
L 2900 3500 
L 3475 3500 
L 3475 0 
L 2900 0 
L 2900 538 
Q 2691 219 2414 64 
Q 2138 -91 1772 -91 
Q 1169 -91 856 284 
Q 544 659 544 1381 
z
M 1991 3584 
L 1991 3584 
z
" transform="scale(0.015625)"/>
     </defs>
     <use xlink:href="#DejaVuSans-61"/>
     <use xlink:href="#DejaVuSans-63" transform="translate(61.279297 0)"/>
     <use xlink:href="#DejaVuSans-74" transform="translate(116.259766 0)"/>
     <use xlink:href="#DejaVuSans-75" transform="translate(155.46875 0)"/>
     <use xlink:href="#DejaVuSans-61" transform="translate(218.847656 0)"/>
     <use xlink:href="#DejaVuSans-6c" transform="translate(280.126953 0)"/>
     <use xlink:href="#DejaVuSans-43" transform="translate(307.910156 0)"/>
     <use xlink:href="#DejaVuSans-6f" transform="translate(377.734375 0)"/>
     <use xlink:href="#DejaVuSans-73" transform="translate(438.916016 0)"/>
     <use xlink:href="#DejaVuSans-74" transform="translate(491.015625 0)"/>
    </g>
   </g>
   <g id="text_29">
    <!-- isOnTime -->
    <g style="fill: #2c2c2a" transform="translate(358.412308 253.199525) scale(0.076 -0.076)">
     <defs>
      <path id="DejaVuSans-4f" d="M 2522 4238 
Q 1834 4238 1429 3725 
Q 1025 3213 1025 2328 
Q 1025 1447 1429 934 
Q 1834 422 2522 422 
Q 3209 422 3611 934 
Q 4013 1447 4013 2328 
Q 4013 3213 3611 3725 
Q 3209 4238 2522 4238 
z
M 2522 4750 
Q 3503 4750 4090 4092 
Q 4678 3434 4678 2328 
Q 4678 1225 4090 567 
Q 3503 -91 2522 -91 
Q 1538 -91 948 565 
Q 359 1222 359 2328 
Q 359 3434 948 4092 
Q 1538 4750 2522 4750 
z
" transform="scale(0.015625)"/>
      <path id="DejaVuSans-54" d="M -19 4666 
L 3928 4666 
L 3928 4134 
L 2272 4134 
L 2272 0 
L 1638 0 
L 1638 4134 
L -19 4134 
L -19 4666 
z
" transform="scale(0.015625)"/>
     </defs>
     <use xlink:href="#DejaVuSans-69"/>
     <use xlink:href="#DejaVuSans-73" transform="translate(27.783203 0)"/>
     <use xlink:href="#DejaVuSans-4f" transform="translate(79.882812 0)"/>
     <use xlink:href="#DejaVuSans-6e" transform="translate(158.59375 0)"/>
     <use xlink:href="#DejaVuSans-54" transform="translate(221.972656 0)"/>
     <use xlink:href="#DejaVuSans-69" transform="translate(279.931641 0)"/>
     <use xlink:href="#DejaVuSans-6d" transform="translate(307.714844 0)"/>
     <use xlink:href="#DejaVuSans-65" transform="translate(405.126953 0)"/>
    </g>
   </g>
   <g id="text_30">
    <!-- status -->
    <g style="fill: #2c2c2a" transform="translate(358.412308 273.695525) scale(0.076 -0.076)">
     <use xlink:href="#DejaVuSans-73"/>
     <use xlink:href="#DejaVuSans-74" transform="translate(52.099609 0)"/>
     <use xlink:href="#DejaVuSans-61" transform="translate(91.308594 0)"/>
     <use xlink:href="#DejaVuSans-74" transform="translate(152.587891 0)"/>
     <use xlink:href="#DejaVuSans-75" transform="translate(191.796875 0)"/>
     <use xlink:href="#DejaVuSans-73" transform="translate(255.175781 0)"/>
    </g>
   </g>
   <g id="text_31">
    <!-- trackNumber -->
    <g style="fill: #2c2c2a" transform="translate(358.412308 294.191525) scale(0.076 -0.076)">
     <defs>
      <path id="DejaVuSans-6b" d="M 581 4863 
L 1159 4863 
L 1159 1991 
L 2875 3500 
L 3609 3500 
L 1753 1863 
L 3688 0 
L 2938 0 
L 1159 1709 
L 1159 0 
L 581 0 
L 581 4863 
z
" transform="scale(0.015625)"/>
      <path id="DejaVuSans-62" d="M 3116 1747 
Q 3116 2381 2855 2742 
Q 2594 3103 2138 3103 
Q 1681 3103 1420 2742 
Q 1159 2381 1159 1747 
Q 1159 1113 1420 752 
Q 1681 391 2138 391 
Q 2594 391 2855 752 
Q 3116 1113 3116 1747 
z
M 1159 2969 
Q 1341 3281 1617 3432 
Q 1894 3584 2278 3584 
Q 2916 3584 3314 3078 
Q 3713 2572 3713 1747 
Q 3713 922 3314 415 
Q 2916 -91 2278 -91 
Q 1894 -91 1617 61 
Q 1341 213 1159 525 
L 1159 0 
L 581 0 
L 581 4863 
L 1159 4863 
L 1159 2969 
z
" transform="scale(0.015625)"/>
     </defs>
     <use xlink:href="#DejaVuSans-74"/>
     <use xlink:href="#DejaVuSans-72" transform="translate(39.208984 0)"/>
     <use xlink:href="#DejaVuSans-61" transform="translate(80.322266 0)"/>
     <use xlink:href="#DejaVuSans-63" transform="translate(141.601562 0)"/>
     <use xlink:href="#DejaVuSans-6b" transform="translate(196.582031 0)"/>
     <use xlink:href="#DejaVuSans-4e" transform="translate(254.492188 0)"/>
     <use xlink:href="#DejaVuSans-75" transform="translate(329.296875 0)"/>
     <use xlink:href="#DejaVuSans-6d" transform="translate(392.675781 0)"/>
     <use xlink:href="#DejaVuSans-62" transform="translate(490.087891 0)"/>
     <use xlink:href="#DejaVuSans-65" transform="translate(553.564453 0)"/>
     <use xlink:href="#DejaVuSans-72" transform="translate(615.087891 0)"/>
    </g>
   </g>
   <g id="text_32">
    <!-- … см. DATABASE.md -->
    <g style="fill: #2c2c2a" transform="translate(358.412308 314.687525) scale(0.076 -0.076)">
     <defs>
      <path id="DejaVuSans-2026" d="M 2869 794 
L 3531 794 
L 3531 0 
L 2869 0 
L 2869 794 
z
M 4997 794 
L 5663 794 
L 5663 0 
L 4997 0 
L 4997 794 
z
M 738 794 
L 1403 794 
L 1403 0 
L 738 0 
L 738 794 
z
" transform="scale(0.015625)"/>
      <path id="DejaVuSans-20" transform="scale(0.015625)"/>
      <path id="DejaVuSans-441" d="M 3122 3366 
L 3122 2828 
Q 2878 2963 2633 3030 
Q 2388 3097 2138 3097 
Q 1578 3097 1268 2742 
Q 959 2388 959 1747 
Q 959 1106 1268 751 
Q 1578 397 2138 397 
Q 2388 397 2633 464 
Q 2878 531 3122 666 
L 3122 134 
Q 2881 22 2623 -34 
Q 2366 -91 2075 -91 
Q 1284 -91 818 406 
Q 353 903 353 1747 
Q 353 2603 823 3093 
Q 1294 3584 2113 3584 
Q 2378 3584 2631 3529 
Q 2884 3475 3122 3366 
z
" transform="scale(0.015625)"/>
      <path id="DejaVuSans-43c" d="M 581 3500 
L 1422 3500 
L 2416 1156 
L 3413 3500 
L 4247 3500 
L 4247 0 
L 3669 0 
L 3669 2950 
L 2703 672 
L 2128 672 
L 1159 2950 
L 1159 0 
L 581 0 
L 581 3500 
z
" transform="scale(0.015625)"/>
      <path id="DejaVuSans-2e" d="M 684 794 
L 1344 794 
L 1344 0 
L 684 0 
L 684 794 
z
" transform="scale(0.015625)"/>
      <path id="DejaVuSans-44" d="M 1259 4147 
L 1259 519 
L 2022 519 
Q 2988 519 3436 956 
Q 3884 1394 3884 2338 
Q 3884 3275 3436 3711 
Q 2988 4147 2022 4147 
L 1259 4147 
z
M 628 4666 
L 1925 4666 
Q 3281 4666 3915 4102 
Q 4550 3538 4550 2338 
Q 4550 1131 3912 565 
Q 3275 0 1925 0 
L 628 0 
L 628 4666 
z
" transform="scale(0.015625)"/>
      <path id="DejaVuSans-41" d="M 2188 4044 
L 1331 1722 
L 3047 1722 
L 2188 4044 
z
M 1831 4666 
L 2547 4666 
L 4325 0 
L 3669 0 
L 3244 1197 
L 1141 1197 
L 716 0 
L 50 0 
L 1831 4666 
z
" transform="scale(0.015625)"/>
      <path id="DejaVuSans-42" d="M 1259 2228 
L 1259 519 
L 2272 519 
Q 2781 519 3026 730 
Q 3272 941 3272 1375 
Q 3272 1813 3026 2020 
Q 2781 2228 2272 2228 
L 1259 2228 
z
M 1259 4147 
L 1259 2741 
L 2194 2741 
Q 2656 2741 2882 2914 
Q 3109 3088 3109 3444 
Q 3109 3797 2882 3972 
Q 2656 4147 2194 4147 
L 1259 4147 
z
M 628 4666 
L 2241 4666 
Q 2963 4666 3353 4366 
Q 3744 4066 3744 3513 
Q 3744 3084 3544 2831 
Q 3344 2578 2956 2516 
Q 3422 2416 3680 2098 
Q 3938 1781 3938 1306 
Q 3938 681 3513 340 
Q 3088 0 2303 0 
L 628 0 
L 628 4666 
z
" transform="scale(0.015625)"/>
      <path id="DejaVuSans-53" d="M 3425 4513 
L 3425 3897 
Q 3066 4069 2747 4153 
Q 2428 4238 2131 4238 
Q 1616 4238 1336 4038 
Q 1056 3838 1056 3469 
Q 1056 3159 1242 3001 
Q 1428 2844 1947 2747 
L 2328 2669 
Q 3034 2534 3370 2195 
Q 3706 1856 3706 1288 
Q 3706 609 3251 259 
Q 2797 -91 1919 -91 
Q 1588 -91 1214 -16 
Q 841 59 441 206 
L 441 856 
Q 825 641 1194 531 
Q 1563 422 1919 422 
Q 2459 422 2753 634 
Q 3047 847 3047 1241 
Q 3047 1584 2836 1778 
Q 2625 1972 2144 2069 
L 1759 2144 
Q 1053 2284 737 2584 
Q 422 2884 422 3419 
Q 422 4038 858 4394 
Q 1294 4750 2059 4750 
Q 2388 4750 2728 4690 
Q 3069 4631 3425 4513 
z
" transform="scale(0.015625)"/>
      <path id="DejaVuSans-45" d="M 628 4666 
L 3578 4666 
L 3578 4134 
L 1259 4134 
L 1259 2753 
L 3481 2753 
L 3481 2222 
L 1259 2222 
L 1259 531 
L 3634 531 
L 3634 0 
L 628 0 
L 628 4666 
z
" transform="scale(0.015625)"/>
     </defs>
     <use xlink:href="#DejaVuSans-2026"/>
     <use xlink:href="#DejaVuSans-20" transform="translate(100 0)"/>
     <use xlink:href="#DejaVuSans-441" transform="translate(131.787109 0)"/>
     <use xlink:href="#DejaVuSans-43c" transform="translate(186.767578 0)"/>
     <use xlink:href="#DejaVuSans-2e" transform="translate(262.207031 0)"/>
     <use xlink:href="#DejaVuSans-20" transform="translate(293.994141 0)"/>
     <use xlink:href="#DejaVuSans-44" transform="translate(325.78125 0)"/>
     <use xlink:href="#DejaVuSans-41" transform="translate(401.033203 0)"/>
     <use xlink:href="#DejaVuSans-54" transform="translate(461.691406 0)"/>
     <use xlink:href="#DejaVuSans-41" transform="translate(515.025391 0)"/>
     <use xlink:href="#DejaVuSans-42" transform="translate(583.433594 0)"/>
     <use xlink:href="#DejaVuSans-41" transform="translate(652.037109 0)"/>
     <use xlink:href="#DejaVuSans-53" transform="translate(720.445312 0)"/>
     <use xlink:href="#DejaVuSans-45" transform="translate(783.921875 0)"/>
     <use xlink:href="#DejaVuSans-2e" transform="translate(847.105469 0)"/>
     <use xlink:href="#DejaVuSans-6d" transform="translate(878.892578 0)"/>
     <use xlink:href="#DejaVuSans-64" transform="translate(976.304688 0)"/>
    </g>
   </g>
   <g id="text_33">
    <!-- TARIFF_QUOTE -->
    <g style="fill: #04342c" transform="translate(117.851169 433.87263) scale(0.095 -0.095)">
     <defs>
      <path id="DejaVuSans-Bold-46" d="M 588 4666 
L 3834 4666 
L 3834 3756 
L 1791 3756 
L 1791 2888 
L 3713 2888 
L 3713 1978 
L 1791 1978 
L 1791 0 
L 588 0 
L 588 4666 
z
" transform="scale(0.015625)"/>
      <path id="DejaVuSans-Bold-5f" d="M 3200 -916 
L 3200 -1509 
L 0 -1509 
L 0 -916 
L 3200 -916 
z
" transform="scale(0.015625)"/>
      <path id="DejaVuSans-Bold-51" d="M 2847 -84 
L 2753 -84 
Q 1600 -84 959 553 
Q 319 1191 319 2328 
Q 319 3463 958 4106 
Q 1597 4750 2719 4750 
Q 3853 4750 4486 4112 
Q 5119 3475 5119 2328 
Q 5119 1541 4783 972 
Q 4447 403 3816 116 
L 4756 -934 
L 3609 -934 
L 2847 -84 
z
M 2719 3878 
Q 2169 3878 1866 3472 
Q 1563 3066 1563 2328 
Q 1563 1578 1859 1179 
Q 2156 781 2719 781 
Q 3272 781 3575 1187 
Q 3878 1594 3878 2328 
Q 3878 3066 3575 3472 
Q 3272 3878 2719 3878 
z
" transform="scale(0.015625)"/>
     </defs>
     <use xlink:href="#DejaVuSans-Bold-54"/>
     <use xlink:href="#DejaVuSans-Bold-41" transform="translate(60.462891 0)"/>
     <use xlink:href="#DejaVuSans-Bold-52" transform="translate(137.855469 0)"/>
     <use xlink:href="#DejaVuSans-Bold-49" transform="translate(214.857422 0)"/>
     <use xlink:href="#DejaVuSans-Bold-46" transform="translate(252.064453 0)"/>
     <use xlink:href="#DejaVuSans-Bold-46" transform="translate(320.375 0)"/>
     <use xlink:href="#DejaVuSans-Bold-5f" transform="translate(388.685547 0)"/>
     <use xlink:href="#DejaVuSans-Bold-51" transform="translate(438.685547 0)"/>
     <use xlink:href="#DejaVuSans-Bold-55" transform="translate(523.695312 0)"/>
     <use xlink:href="#DejaVuSans-Bold-4f" transform="translate(604.896484 0)"/>
     <use xlink:href="#DejaVuSans-Bold-54" transform="translate(689.90625 0)"/>
     <use xlink:href="#DejaVuSans-Bold-45" transform="translate(758.119141 0)"/>
    </g>
   </g>
   <g id="text_34">
    <!-- id -->
    <g style="fill: #2c2c2a" transform="translate(44.32 458.159525) scale(0.076 -0.076)">
     <use xlink:href="#DejaVuSans-69"/>
     <use xlink:href="#DejaVuSans-64" transform="translate(27.783203 0)"/>
    </g>
   </g>
   <g id="text_35">
    <!-- PK -->
    <g style="fill: #185fa5" transform="translate(261.335885 457.938775) scale(0.068 -0.068)">
     <use xlink:href="#DejaVuSans-50"/>
     <use xlink:href="#DejaVuSans-4b" transform="translate(60.302734 0)"/>
    </g>
   </g>
   <g id="text_36">
    <!-- shipmentId -->
    <g style="fill: #2c2c2a" transform="translate(44.32 478.655525) scale(0.076 -0.076)">
     <use xlink:href="#DejaVuSans-73"/>
     <use xlink:href="#DejaVuSans-68" transform="translate(52.099609 0)"/>
     <use xlink:href="#DejaVuSans-69" transform="translate(115.478516 0)"/>
     <use xlink:href="#DejaVuSans-70" transform="translate(143.261719 0)"/>
     <use xlink:href="#DejaVuSans-6d" transform="translate(206.738281 0)"/>
     <use xlink:href="#DejaVuSans-65" transform="translate(304.150391 0)"/>
     <use xlink:href="#DejaVuSans-6e" transform="translate(365.673828 0)"/>
     <use xlink:href="#DejaVuSans-74" transform="translate(429.052734 0)"/>
     <use xlink:href="#DejaVuSans-49" transform="translate(468.261719 0)"/>
     <use xlink:href="#DejaVuSans-64" transform="translate(497.753906 0)"/>
    </g>
   </g>
   <g id="text_37">
    <!-- FK -->
    <g style="fill: #993c1d" transform="translate(261.52501 478.434775) scale(0.068 -0.068)">
     <use xlink:href="#DejaVuSans-46"/>
     <use xlink:href="#DejaVuSans-4b" transform="translate(57.519531 0)"/>
    </g>
   </g>
   <g id="text_38">
    <!-- carrierId -->
    <g style="fill: #2c2c2a" transform="translate(44.32 499.151525) scale(0.076 -0.076)">
     <use xlink:href="#DejaVuSans-63"/>
     <use xlink:href="#DejaVuSans-61" transform="translate(54.980469 0)"/>
     <use xlink:href="#DejaVuSans-72" transform="translate(116.259766 0)"/>
     <use xlink:href="#DejaVuSans-72" transform="translate(155.623047 0)"/>
     <use xlink:href="#DejaVuSans-69" transform="translate(196.736328 0)"/>
     <use xlink:href="#DejaVuSans-65" transform="translate(224.519531 0)"/>
     <use xlink:href="#DejaVuSans-72" transform="translate(286.042969 0)"/>
     <use xlink:href="#DejaVuSans-49" transform="translate(327.15625 0)"/>
     <use xlink:href="#DejaVuSans-64" transform="translate(356.648438 0)"/>
    </g>
   </g>
   <g id="text_39">
    <!-- FK -->
    <g style="fill: #993c1d" transform="translate(261.52501 498.930775) scale(0.068 -0.068)">
     <use xlink:href="#DejaVuSans-46"/>
     <use xlink:href="#DejaVuSans-4b" transform="translate(57.519531 0)"/>
    </g>
   </g>
   <g id="text_40">
    <!-- cost -->
    <g style="fill: #2c2c2a" transform="translate(44.32 519.647525) scale(0.076 -0.076)">
     <use xlink:href="#DejaVuSans-63"/>
     <use xlink:href="#DejaVuSans-6f" transform="translate(54.980469 0)"/>
     <use xlink:href="#DejaVuSans-73" transform="translate(116.162109 0)"/>
     <use xlink:href="#DejaVuSans-74" transform="translate(168.261719 0)"/>
    </g>
   </g>
   <g id="text_41">
    <!-- deliveryDaysMin -->
    <g style="fill: #2c2c2a" transform="translate(44.32 540.143525) scale(0.076 -0.076)">
     <defs>
      <path id="DejaVuSans-76" d="M 191 3500 
L 800 3500 
L 1894 563 
L 2988 3500 
L 3597 3500 
L 2284 0 
L 1503 0 
L 191 3500 
z
" transform="scale(0.015625)"/>
      <path id="DejaVuSans-4d" d="M 628 4666 
L 1569 4666 
L 2759 1491 
L 3956 4666 
L 4897 4666 
L 4897 0 
L 4281 0 
L 4281 4097 
L 3078 897 
L 2444 897 
L 1241 4097 
L 1241 0 
L 628 0 
L 628 4666 
z
" transform="scale(0.015625)"/>
     </defs>
     <use xlink:href="#DejaVuSans-64"/>
     <use xlink:href="#DejaVuSans-65" transform="translate(63.476562 0)"/>
     <use xlink:href="#DejaVuSans-6c" transform="translate(125 0)"/>
     <use xlink:href="#DejaVuSans-69" transform="translate(152.783203 0)"/>
     <use xlink:href="#DejaVuSans-76" transform="translate(180.566406 0)"/>
     <use xlink:href="#DejaVuSans-65" transform="translate(239.746094 0)"/>
     <use xlink:href="#DejaVuSans-72" transform="translate(301.269531 0)"/>
     <use xlink:href="#DejaVuSans-79" transform="translate(342.382812 0)"/>
     <use xlink:href="#DejaVuSans-44" transform="translate(401.5625 0)"/>
     <use xlink:href="#DejaVuSans-61" transform="translate(478.564453 0)"/>
     <use xlink:href="#DejaVuSans-79" transform="translate(539.84375 0)"/>
     <use xlink:href="#DejaVuSans-73" transform="translate(599.023438 0)"/>
     <use xlink:href="#DejaVuSans-4d" transform="translate(651.123047 0)"/>
     <use xlink:href="#DejaVuSans-69" transform="translate(737.402344 0)"/>
     <use xlink:href="#DejaVuSans-6e" transform="translate(765.185547 0)"/>
    </g>
   </g>
   <g id="text_42">
    <!-- TRACKING_EVENT -->
    <g style="fill: #04342c" transform="translate(424.062187 433.87263) scale(0.095 -0.095)">
     <defs>
      <path id="DejaVuSans-Bold-4b" d="M 588 4666 
L 1791 4666 
L 1791 2963 
L 3525 4666 
L 4922 4666 
L 2675 2456 
L 5153 0 
L 3647 0 
L 1791 1838 
L 1791 0 
L 588 0 
L 588 4666 
z
" transform="scale(0.015625)"/>
      <path id="DejaVuSans-Bold-47" d="M 4781 347 
Q 4331 128 3847 18 
Q 3363 -91 2847 -91 
Q 1681 -91 1000 561 
Q 319 1213 319 2328 
Q 319 3456 1012 4103 
Q 1706 4750 2913 4750 
Q 3378 4750 3804 4662 
Q 4231 4575 4609 4403 
L 4609 3438 
Q 4219 3659 3833 3768 
Q 3447 3878 3059 3878 
Q 2341 3878 1952 3476 
Q 1563 3075 1563 2328 
Q 1563 1588 1938 1184 
Q 2313 781 3003 781 
Q 3191 781 3352 804 
Q 3513 828 3641 878 
L 3641 1784 
L 2906 1784 
L 2906 2591 
L 4781 2591 
L 4781 347 
z
" transform="scale(0.015625)"/>
      <path id="DejaVuSans-Bold-56" d="M 31 4666 
L 1241 4666 
L 2478 1222 
L 3713 4666 
L 4922 4666 
L 3194 0 
L 1759 0 
L 31 4666 
z
" transform="scale(0.015625)"/>
     </defs>
     <use xlink:href="#DejaVuSans-Bold-54"/>
     <use xlink:href="#DejaVuSans-Bold-52" transform="translate(68.212891 0)"/>
     <use xlink:href="#DejaVuSans-Bold-41" transform="translate(145.214844 0)"/>
     <use xlink:href="#DejaVuSans-Bold-43" transform="translate(222.607422 0)"/>
     <use xlink:href="#DejaVuSans-Bold-4b" transform="translate(295.996094 0)"/>
     <use xlink:href="#DejaVuSans-Bold-49" transform="translate(373.486328 0)"/>
     <use xlink:href="#DejaVuSans-Bold-4e" transform="translate(410.693359 0)"/>
     <use xlink:href="#DejaVuSans-Bold-47" transform="translate(494.384766 0)"/>
     <use xlink:href="#DejaVuSans-Bold-5f" transform="translate(576.464844 0)"/>
     <use xlink:href="#DejaVuSans-Bold-45" transform="translate(626.464844 0)"/>
     <use xlink:href="#DejaVuSans-Bold-56" transform="translate(694.775391 0)"/>
     <use xlink:href="#DejaVuSans-Bold-45" transform="translate(772.167969 0)"/>
     <use xlink:href="#DejaVuSans-Bold-4e" transform="translate(840.478516 0)"/>
     <use xlink:href="#DejaVuSans-Bold-54" transform="translate(924.169922 0)"/>
    </g>
   </g>
   <g id="text_43">
    <!-- id -->
    <g style="fill: #2c2c2a" transform="translate(358.412308 458.159525) scale(0.076 -0.076)">
     <use xlink:href="#DejaVuSans-69"/>
     <use xlink:href="#DejaVuSans-64" transform="translate(27.783203 0)"/>
    </g>
   </g>
   <g id="text_44">
    <!-- PK -->
    <g style="fill: #185fa5" transform="translate(575.428192 457.938775) scale(0.068 -0.068)">
     <use xlink:href="#DejaVuSans-50"/>
     <use xlink:href="#DejaVuSans-4b" transform="translate(60.302734 0)"/>
    </g>
   </g>
   <g id="text_45">
    <!-- shipmentId -->
    <g style="fill: #2c2c2a" transform="translate(358.412308 478.655525) scale(0.076 -0.076)">
     <use xlink:href="#DejaVuSans-73"/>
     <use xlink:href="#DejaVuSans-68" transform="translate(52.099609 0)"/>
     <use xlink:href="#DejaVuSans-69" transform="translate(115.478516 0)"/>
     <use xlink:href="#DejaVuSans-70" transform="translate(143.261719 0)"/>
     <use xlink:href="#DejaVuSans-6d" transform="translate(206.738281 0)"/>
     <use xlink:href="#DejaVuSans-65" transform="translate(304.150391 0)"/>
     <use xlink:href="#DejaVuSans-6e" transform="translate(365.673828 0)"/>
     <use xlink:href="#DejaVuSans-74" transform="translate(429.052734 0)"/>
     <use xlink:href="#DejaVuSans-49" transform="translate(468.261719 0)"/>
     <use xlink:href="#DejaVuSans-64" transform="translate(497.753906 0)"/>
    </g>
   </g>
   <g id="text_46">
    <!-- FK -->
    <g style="fill: #993c1d" transform="translate(575.617317 478.434775) scale(0.068 -0.068)">
     <use xlink:href="#DejaVuSans-46"/>
     <use xlink:href="#DejaVuSans-4b" transform="translate(57.519531 0)"/>
    </g>
   </g>
   <g id="text_47">
    <!-- statusText -->
    <g style="fill: #2c2c2a" transform="translate(358.412308 499.151525) scale(0.076 -0.076)">
     <defs>
      <path id="DejaVuSans-78" d="M 3513 3500 
L 2247 1797 
L 3578 0 
L 2900 0 
L 1881 1375 
L 863 0 
L 184 0 
L 1544 1831 
L 300 3500 
L 978 3500 
L 1906 2253 
L 2834 3500 
L 3513 3500 
z
" transform="scale(0.015625)"/>
     </defs>
     <use xlink:href="#DejaVuSans-73"/>
     <use xlink:href="#DejaVuSans-74" transform="translate(52.099609 0)"/>
     <use xlink:href="#DejaVuSans-61" transform="translate(91.308594 0)"/>
     <use xlink:href="#DejaVuSans-74" transform="translate(152.587891 0)"/>
     <use xlink:href="#DejaVuSans-75" transform="translate(191.796875 0)"/>
     <use xlink:href="#DejaVuSans-73" transform="translate(255.175781 0)"/>
     <use xlink:href="#DejaVuSans-54" transform="translate(307.275391 0)"/>
     <use xlink:href="#DejaVuSans-65" transform="translate(351.359375 0)"/>
     <use xlink:href="#DejaVuSans-78" transform="translate(411.132812 0)"/>
     <use xlink:href="#DejaVuSans-74" transform="translate(470.3125 0)"/>
    </g>
   </g>
   <g id="text_48">
    <!-- eventAt -->
    <g style="fill: #2c2c2a" transform="translate(358.412308 519.647525) scale(0.076 -0.076)">
     <use xlink:href="#DejaVuSans-65"/>
     <use xlink:href="#DejaVuSans-76" transform="translate(61.523438 0)"/>
     <use xlink:href="#DejaVuSans-65" transform="translate(120.703125 0)"/>
     <use xlink:href="#DejaVuSans-6e" transform="translate(182.226562 0)"/>
     <use xlink:href="#DejaVuSans-74" transform="translate(245.605469 0)"/>
     <use xlink:href="#DejaVuSans-41" transform="translate(284.814453 0)"/>
     <use xlink:href="#DejaVuSans-74" transform="translate(351.472656 0)"/>
    </g>
   </g>
   <g id="text_49">
    <!-- CARRIER_SCORE -->
    <g style="fill: #04342c" transform="translate(756.200246 324.56063) scale(0.095 -0.095)">
     <use xlink:href="#DejaVuSans-Bold-43"/>
     <use xlink:href="#DejaVuSans-Bold-41" transform="translate(73.388672 0)"/>
     <use xlink:href="#DejaVuSans-Bold-52" transform="translate(150.78125 0)"/>
     <use xlink:href="#DejaVuSans-Bold-52" transform="translate(227.783203 0)"/>
     <use xlink:href="#DejaVuSans-Bold-49" transform="translate(304.785156 0)"/>
     <use xlink:href="#DejaVuSans-Bold-45" transform="translate(341.992188 0)"/>
     <use xlink:href="#DejaVuSans-Bold-52" transform="translate(410.302734 0)"/>
     <use xlink:href="#DejaVuSans-Bold-5f" transform="translate(487.304688 0)"/>
     <use xlink:href="#DejaVuSans-Bold-53" transform="translate(537.304688 0)"/>
     <use xlink:href="#DejaVuSans-Bold-43" transform="translate(609.326172 0)"/>
     <use xlink:href="#DejaVuSans-Bold-4f" transform="translate(682.714844 0)"/>
     <use xlink:href="#DejaVuSans-Bold-52" transform="translate(767.724609 0)"/>
     <use xlink:href="#DejaVuSans-Bold-45" transform="translate(844.726562 0)"/>
    </g>
   </g>
   <g id="text_50">
    <!-- id -->
    <g style="fill: #2c2c2a" transform="translate(701.058462 348.847525) scale(0.076 -0.076)">
     <use xlink:href="#DejaVuSans-69"/>
     <use xlink:href="#DejaVuSans-64" transform="translate(27.783203 0)"/>
    </g>
   </g>
   <g id="text_51">
    <!-- PK -->
    <g style="fill: #185fa5" transform="translate(889.5205 348.626775) scale(0.068 -0.068)">
     <use xlink:href="#DejaVuSans-50"/>
     <use xlink:href="#DejaVuSans-4b" transform="translate(60.302734 0)"/>
    </g>
   </g>
   <g id="text_52">
    <!-- carrierId -->
    <g style="fill: #2c2c2a" transform="translate(701.058462 369.343525) scale(0.076 -0.076)">
     <use xlink:href="#DejaVuSans-63"/>
     <use xlink:href="#DejaVuSans-61" transform="translate(54.980469 0)"/>
     <use xlink:href="#DejaVuSans-72" transform="translate(116.259766 0)"/>
     <use xlink:href="#DejaVuSans-72" transform="translate(155.623047 0)"/>
     <use xlink:href="#DejaVuSans-69" transform="translate(196.736328 0)"/>
     <use xlink:href="#DejaVuSans-65" transform="translate(224.519531 0)"/>
     <use xlink:href="#DejaVuSans-72" transform="translate(286.042969 0)"/>
     <use xlink:href="#DejaVuSans-49" transform="translate(327.15625 0)"/>
     <use xlink:href="#DejaVuSans-64" transform="translate(356.648438 0)"/>
    </g>
   </g>
   <g id="text_53">
    <!-- FK -->
    <g style="fill: #993c1d" transform="translate(889.709625 369.122775) scale(0.068 -0.068)">
     <use xlink:href="#DejaVuSans-46"/>
     <use xlink:href="#DejaVuSans-4b" transform="translate(57.519531 0)"/>
    </g>
   </g>
   <g id="text_54">
    <!-- onTimeRate -->
    <g style="fill: #2c2c2a" transform="translate(701.058462 389.839525) scale(0.076 -0.076)">
     <defs>
      <path id="DejaVuSans-52" d="M 2841 2188 
Q 3044 2119 3236 1894 
Q 3428 1669 3622 1275 
L 4263 0 
L 3584 0 
L 2988 1197 
Q 2756 1666 2539 1819 
Q 2322 1972 1947 1972 
L 1259 1972 
L 1259 0 
L 628 0 
L 628 4666 
L 2053 4666 
Q 2853 4666 3247 4331 
Q 3641 3997 3641 3322 
Q 3641 2881 3436 2590 
Q 3231 2300 2841 2188 
z
M 1259 4147 
L 1259 2491 
L 2053 2491 
Q 2509 2491 2742 2702 
Q 2975 2913 2975 3322 
Q 2975 3731 2742 3939 
Q 2509 4147 2053 4147 
L 1259 4147 
z
" transform="scale(0.015625)"/>
     </defs>
     <use xlink:href="#DejaVuSans-6f"/>
     <use xlink:href="#DejaVuSans-6e" transform="translate(61.181641 0)"/>
     <use xlink:href="#DejaVuSans-54" transform="translate(124.560547 0)"/>
     <use xlink:href="#DejaVuSans-69" transform="translate(182.519531 0)"/>
     <use xlink:href="#DejaVuSans-6d" transform="translate(210.302734 0)"/>
     <use xlink:href="#DejaVuSans-65" transform="translate(307.714844 0)"/>
     <use xlink:href="#DejaVuSans-52" transform="translate(369.238281 0)"/>
     <use xlink:href="#DejaVuSans-61" transform="translate(436.470703 0)"/>
     <use xlink:href="#DejaVuSans-74" transform="translate(497.75 0)"/>
     <use xlink:href="#DejaVuSans-65" transform="translate(536.958984 0)"/>
    </g>
   </g>
   <g id="text_55">
    <!-- score -->
    <g style="fill: #2c2c2a" transform="translate(701.058462 410.335525) scale(0.076 -0.076)">
     <use xlink:href="#DejaVuSans-73"/>
     <use xlink:href="#DejaVuSans-63" transform="translate(52.099609 0)"/>
     <use xlink:href="#DejaVuSans-6f" transform="translate(107.080078 0)"/>
     <use xlink:href="#DejaVuSans-72" transform="translate(168.261719 0)"/>
     <use xlink:href="#DejaVuSans-65" transform="translate(207.125 0)"/>
    </g>
   </g>
   <g id="text_56">
    <g id="patch_32">
     <path d="M 142.830769 151.607969 
C 143.992172 151.607969 145.106164 151.146539 145.9274 150.325303 
C 146.748636 149.504067 147.210066 148.390075 147.210066 147.228672 
C 147.210066 146.067269 146.748636 144.953277 145.9274 144.132041 
C 145.106164 143.310805 143.992172 142.849375 142.830769 142.849375 
C 141.669366 142.849375 140.555375 143.310805 139.734139 144.132041 
C 138.912903 144.953277 138.451472 146.067269 138.451472 147.228672 
C 138.451472 148.390075 138.912903 149.504067 139.734139 150.325303 
C 140.555375 151.146539 141.669366 151.607969 142.830769 151.607969 
z
" style="fill: #ffffff"/>
    </g>
    <!-- 1 -->
    <g style="fill: #73726c" transform="translate(140.444832 149.298203) scale(0.075 -0.075)">
     <defs>
      <path id="DejaVuSans-31" d="M 794 531 
L 1825 531 
L 1825 4091 
L 703 3866 
L 703 4441 
L 1819 4666 
L 2450 4666 
L 2450 531 
L 3481 531 
L 3481 0 
L 794 0 
L 794 531 
z
" transform="scale(0.015625)"/>
     </defs>
     <use xlink:href="#DejaVuSans-31"/>
    </g>
   </g>
   <g id="text_57">
    <g id="patch_33">
     <path d="M 142.830769 208.560884 
C 144.224453 208.560884 145.561243 208.007168 146.546726 207.021685 
C 147.532209 206.036201 148.085925 204.699412 148.085925 203.305728 
C 148.085925 201.912044 147.532209 200.575255 146.546726 199.589771 
C 145.561243 198.604288 144.224453 198.050572 142.830769 198.050572 
C 141.437086 198.050572 140.100296 198.604288 139.114813 199.589771 
C 138.129329 200.575255 137.575613 201.912044 137.575613 203.305728 
C 137.575613 204.699412 138.129329 206.036201 139.114813 207.021685 
C 140.100296 208.007168 141.437086 208.560884 142.830769 208.560884 
z
" style="fill: #ffffff"/>
    </g>
    <!-- ∞ -->
    <g style="fill: #73726c" transform="translate(139.08241 205.789165) scale(0.09 -0.09)">
     <defs>
      <path id="DejaVuSans-221e" d="M 2916 1091 
Q 2819 1203 2666 1466 
Q 2456 1091 2272 925 
Q 2041 725 1681 725 
Q 1259 725 981 1041 
Q 688 1372 688 1919 
Q 688 2444 981 2800 
Q 1244 3116 1688 3116 
Q 1916 3116 2084 3022 
Q 2281 2919 2416 2741 
Q 2541 2581 2666 2366 
Q 2875 2741 3059 2906 
Q 3291 3106 3650 3106 
Q 4072 3106 4350 2791 
Q 4644 2459 4644 1913 
Q 4644 1388 4350 1031 
Q 4088 716 3644 716 
Q 3416 716 3247 809 
Q 3078 894 2916 1091 
z
M 1647 1134 
Q 2163 1134 2472 1884 
Q 2075 2703 1647 2703 
Q 1334 2703 1175 2478 
Q 1003 2238 1003 1919 
Q 1003 1569 1175 1353 
Q 1350 1134 1647 1134 
z
M 3684 2697 
Q 3219 2697 2859 1947 
Q 3253 1128 3684 1128 
Q 3997 1128 4156 1353 
Q 4328 1594 4328 1913 
Q 4328 2263 4156 2478 
Q 3981 2697 3684 2697 
z
" transform="scale(0.015625)"/>
     </defs>
     <use xlink:href="#DejaVuSans-221e"/>
    </g>
   </g>
   <g id="text_58">
    <g id="patch_34">
     <path d="M 261.900308 102.171617 
C 263.061711 102.171617 264.175702 101.710187 264.996938 100.888951 
C 265.818174 100.067715 266.279605 98.953723 266.279605 97.79232 
C 266.279605 96.630917 265.818174 95.516925 264.996938 94.695689 
C 264.175702 93.874453 263.061711 93.413023 261.900308 93.413023 
C 260.738905 93.413023 259.624913 93.874453 258.803677 94.695689 
C 257.982441 95.516925 257.521011 96.630917 257.521011 97.79232 
C 257.521011 98.953723 257.982441 100.067715 258.803677 100.888951 
C 259.624913 101.710187 260.738905 102.171617 261.900308 102.171617 
z
" style="fill: #ffffff"/>
    </g>
    <!-- 1 -->
    <g style="fill: #73726c" transform="translate(259.51437 99.861851) scale(0.075 -0.075)">
     <use xlink:href="#DejaVuSans-31"/>
    </g>
   </g>
   <g id="text_59">
    <g id="patch_35">
     <path d="M 337.853538 196.509236 
C 339.247222 196.509236 340.584012 195.95552 341.569495 194.970037 
C 342.554978 193.984553 343.108695 192.647764 343.108695 191.25408 
C 343.108695 189.860396 342.554978 188.523607 341.569495 187.538123 
C 340.584012 186.55264 339.247222 185.998924 337.853538 185.998924 
C 336.459855 185.998924 335.123065 186.55264 334.137582 187.538123 
C 333.152099 188.523607 332.598382 189.860396 332.598382 191.25408 
C 332.598382 192.647764 333.152099 193.984553 334.137582 194.970037 
C 335.123065 195.95552 336.459855 196.509236 337.853538 196.509236 
z
" style="fill: #ffffff"/>
    </g>
    <!-- ∞ -->
    <g style="fill: #73726c" transform="translate(334.105179 193.737517) scale(0.09 -0.09)">
     <use xlink:href="#DejaVuSans-221e"/>
    </g>
   </g>
   <g id="text_60">
    <g id="patch_36">
     <path d="M 680.499692 93.153377 
C 681.661095 93.153377 682.775087 92.691947 683.596323 91.870711 
C 684.417559 91.049475 684.878989 89.935483 684.878989 88.77408 
C 684.878989 87.612677 684.417559 86.498685 683.596323 85.677449 
C 682.775087 84.856213 681.661095 84.394783 680.499692 84.394783 
C 679.338289 84.394783 678.224298 84.856213 677.403062 85.677449 
C 676.581826 86.498685 676.120395 87.612677 676.120395 88.77408 
C 676.120395 89.935483 676.581826 91.049475 677.403062 91.870711 
C 678.224298 92.691947 679.338289 93.153377 680.499692 93.153377 
z
" style="fill: #ffffff"/>
    </g>
    <!-- 1 -->
    <g style="fill: #73726c" transform="translate(678.113755 90.843611) scale(0.075 -0.075)">
     <use xlink:href="#DejaVuSans-31"/>
    </g>
   </g>
   <g id="text_61">
    <g id="patch_37">
     <path d="M 604.546462 195.279476 
C 605.940145 195.279476 607.276935 194.72576 608.262418 193.740277 
C 609.247901 192.754793 609.801618 191.418004 609.801618 190.02432 
C 609.801618 188.630636 609.247901 187.293847 608.262418 186.308363 
C 607.276935 185.32288 605.940145 184.769164 604.546462 184.769164 
C 603.152778 184.769164 601.815988 185.32288 600.830505 186.308363 
C 599.845022 187.293847 599.291305 188.630636 599.291305 190.02432 
C 599.291305 191.418004 599.845022 192.754793 600.830505 193.740277 
C 601.815988 194.72576 603.152778 195.279476 604.546462 195.279476 
z
" style="fill: #ffffff"/>
    </g>
    <!-- ∞ -->
    <g style="fill: #73726c" transform="translate(600.798102 192.507757) scale(0.09 -0.09)">
     <use xlink:href="#DejaVuSans-221e"/>
    </g>
   </g>
   <g id="text_62">
    <g id="patch_38">
     <path d="M 799.569231 145.049249 
C 800.730634 145.049249 801.844625 144.587819 802.665861 143.766583 
C 803.487097 142.945347 803.948528 141.831355 803.948528 140.669952 
C 803.948528 139.508549 803.487097 138.394557 802.665861 137.573321 
C 801.844625 136.752085 800.730634 136.290655 799.569231 136.290655 
C 798.407828 136.290655 797.293836 136.752085 796.4726 137.573321 
C 795.651364 138.394557 795.189934 139.508549 795.189934 140.669952 
C 795.189934 141.831355 795.651364 142.945347 796.4726 143.766583 
C 797.293836 144.587819 798.407828 145.049249 799.569231 145.049249 
z
" style="fill: #ffffff"/>
    </g>
    <!-- 1 -->
    <g style="fill: #73726c" transform="translate(797.183293 142.739483) scale(0.075 -0.075)">
     <use xlink:href="#DejaVuSans-31"/>
    </g>
   </g>
   <g id="text_63">
    <g id="patch_39">
     <path d="M 799.569231 290.271604 
C 800.962914 290.271604 802.299704 289.717888 803.285187 288.732405 
C 804.270671 287.746921 804.824387 286.410132 804.824387 285.016448 
C 804.824387 283.622764 804.270671 282.285975 803.285187 281.300491 
C 802.299704 280.315008 800.962914 279.761292 799.569231 279.761292 
C 798.175547 279.761292 796.838757 280.315008 795.853274 281.300491 
C 794.867791 282.285975 794.314075 283.622764 794.314075 285.016448 
C 794.314075 286.410132 794.867791 287.746921 795.853274 288.732405 
C 796.838757 289.717888 798.175547 290.271604 799.569231 290.271604 
z
" style="fill: #ffffff"/>
    </g>
    <!-- ∞ -->
    <g style="fill: #73726c" transform="translate(795.820871 287.499885) scale(0.09 -0.09)">
     <use xlink:href="#DejaVuSans-221e"/>
    </g>
   </g>
   <g id="text_64">
    <g id="patch_40">
     <path d="M 471.2 338.531489 
C 472.361403 338.531489 473.475395 338.070059 474.296631 337.248823 
C 475.117867 336.427587 475.579297 335.313595 475.579297 334.152192 
C 475.579297 332.990789 475.117867 331.876797 474.296631 331.055561 
C 473.475395 330.234325 472.361403 329.772895 471.2 329.772895 
C 470.038597 329.772895 468.924605 330.234325 468.103369 331.055561 
C 467.282133 331.876797 466.820703 332.990789 466.820703 334.152192 
C 466.820703 335.313595 467.282133 336.427587 468.103369 337.248823 
C 468.924605 338.070059 470.038597 338.531489 471.2 338.531489 
z
" style="fill: #ffffff"/>
    </g>
    <!-- 1 -->
    <g style="fill: #73726c" transform="translate(468.814062 336.221723) scale(0.075 -0.075)">
     <use xlink:href="#DejaVuSans-31"/>
    </g>
   </g>
   <g id="text_65">
    <g id="patch_41">
     <path d="M 471.2 411.061364 
C 472.593684 411.061364 473.930473 410.507648 474.915957 409.522165 
C 475.90144 408.536681 476.455156 407.199892 476.455156 405.806208 
C 476.455156 404.412524 475.90144 403.075735 474.915957 402.090251 
C 473.930473 401.104768 472.593684 400.551052 471.2 400.551052 
C 469.806316 400.551052 468.469527 401.104768 467.484043 402.090251 
C 466.49856 403.075735 465.944844 404.412524 465.944844 405.806208 
C 465.944844 407.199892 466.49856 408.536681 467.484043 409.522165 
C 468.469527 410.507648 469.806316 411.061364 471.2 411.061364 
z
" style="fill: #ffffff"/>
    </g>
    <!-- ∞ -->
    <g style="fill: #73726c" transform="translate(467.451641 408.289645) scale(0.09 -0.09)">
     <use xlink:href="#DejaVuSans-221e"/>
    </g>
   </g>
   <g id="text_66">
    <g id="patch_42">
     <path d="M 418.946462 346.401953 
C 420.107865 346.401953 421.221856 345.940523 422.043092 345.119287 
C 422.864328 344.298051 423.325758 343.184059 423.325758 342.022656 
C 423.325758 340.861253 422.864328 339.747261 422.043092 338.926025 
C 421.221856 338.104789 420.107865 337.643359 418.946462 337.643359 
C 417.785058 337.643359 416.671067 338.104789 415.849831 338.926025 
C 415.028595 339.747261 414.567165 340.861253 414.567165 342.022656 
C 414.567165 343.184059 415.028595 344.298051 415.849831 345.119287 
C 416.671067 345.940523 417.785058 346.401953 418.946462 346.401953 
z
" style="fill: #ffffff"/>
    </g>
    <!-- 1 -->
    <g style="fill: #73726c" transform="translate(416.560524 344.092187) scale(0.075 -0.075)">
     <use xlink:href="#DejaVuSans-31"/>
    </g>
   </g>
   <g id="text_67">
    <g id="patch_43">
     <path d="M 88.007385 468.7781 
C 89.401068 468.7781 90.737858 468.224384 91.723341 467.238901 
C 92.708824 466.253417 93.262541 464.916628 93.262541 463.522944 
C 93.262541 462.12926 92.708824 460.792471 91.723341 459.806987 
C 90.737858 458.821504 89.401068 458.267788 88.007385 458.267788 
C 86.613701 458.267788 85.276911 458.821504 84.291428 459.806987 
C 83.305945 460.792471 82.752228 462.12926 82.752228 463.522944 
C 82.752228 464.916628 83.305945 466.253417 84.291428 467.238901 
C 85.276911 468.224384 86.613701 468.7781 88.007385 468.7781 
z
" style="fill: #ffffff"/>
    </g>
    <!-- ∞ -->
    <g style="fill: #73726c" transform="translate(84.259025 466.006381) scale(0.09 -0.09)">
     <use xlink:href="#DejaVuSans-221e"/>
    </g>
   </g>
   <g id="text_68">
    <g id="patch_44">
     <path d="M 737.036308 166.037153 
C 738.197711 166.037153 739.311702 165.575723 740.132938 164.754487 
C 740.954174 163.933251 741.415605 162.819259 741.415605 161.657856 
C 741.415605 160.496453 740.954174 159.382461 740.132938 158.561225 
C 739.311702 157.739989 738.197711 157.278559 737.036308 157.278559 
C 735.874905 157.278559 734.760913 157.739989 733.939677 158.561225 
C 733.118441 159.382461 732.657011 160.496453 732.657011 161.657856 
C 732.657011 162.819259 733.118441 163.933251 733.939677 164.754487 
C 734.760913 165.575723 735.874905 166.037153 737.036308 166.037153 
z
" style="fill: #ffffff"/>
    </g>
    <!-- 1 -->
    <g style="fill: #73726c" transform="translate(734.65037 163.727387) scale(0.075 -0.075)">
     <use xlink:href="#DejaVuSans-31"/>
    </g>
   </g>
   <g id="text_69">
    <g id="patch_45">
     <path d="M 340.994462 444.1829 
C 342.388145 444.1829 343.724935 443.629184 344.710418 442.643701 
C 345.695901 441.658217 346.249618 440.321428 346.249618 438.927744 
C 346.249618 437.53406 345.695901 436.197271 344.710418 435.211787 
C 343.724935 434.226304 342.388145 433.672588 340.994462 433.672588 
C 339.600778 433.672588 338.263988 434.226304 337.278505 435.211787 
C 336.293022 436.197271 335.739305 437.53406 335.739305 438.927744 
C 335.739305 440.321428 336.293022 441.658217 337.278505 442.643701 
C 338.263988 443.629184 339.600778 444.1829 340.994462 444.1829 
z
" style="fill: #ffffff"/>
    </g>
    <!-- ∞ -->
    <g style="fill: #73726c" transform="translate(337.246102 441.411181) scale(0.09 -0.09)">
     <use xlink:href="#DejaVuSans-221e"/>
    </g>
   </g>
  </g>
 </g>
 <defs>
  <clipPath id="p03265031cf">
   <rect x="7.2" y="7.2" width="928" height="683.2"/>
  </clipPath>
 </defs>
</svg>
